<mxfile host="app.diagrams.net" modified="2024-01-25T06:49:05.014Z" agent="Mozilla/5.0 (Windows NT 10.0; Win64; x64) AppleWebKit/537.36 (KHTML, like Gecko) Chrome/120.0.0.0 Safari/537.36" etag="QjRnizCrmj4Q7iT2MLZZ" version="23.0.1" type="github">
  <diagram id="prtHgNgQTEPvFCAcTncT" name="Page-1">
    <mxGraphModel dx="2991" dy="2292" grid="1" gridSize="10" guides="1" tooltips="1" connect="1" arrows="1" fold="1" page="1" pageScale="1" pageWidth="827" pageHeight="1169" math="0" shadow="0">
      <root>
        <mxCell id="0" />
        <mxCell id="1" parent="0" />
        <mxCell id="yiQyodVWs_H40nuC7oee-5" value="&lt;font style=&quot;font-size: 33px;&quot;&gt;&lt;b style=&quot;font-size: 33px;&quot;&gt;로그인 페이지&lt;br&gt;&lt;/b&gt;&lt;/font&gt;" style="rounded=0;whiteSpace=wrap;html=1;fontSize=33;" parent="1" vertex="1">
          <mxGeometry x="920" y="580" width="240" height="90" as="geometry" />
        </mxCell>
        <mxCell id="yiQyodVWs_H40nuC7oee-10" value="메인페이지" style="rhombus;whiteSpace=wrap;html=1;fontSize=30;" parent="1" vertex="1">
          <mxGeometry x="90" y="250" width="230" height="170" as="geometry" />
        </mxCell>
        <mxCell id="yiQyodVWs_H40nuC7oee-11" value="예측분석관리" style="rounded=0;whiteSpace=wrap;html=1;fontSize=33;" parent="1" vertex="1">
          <mxGeometry x="710" y="20" width="240" height="90" as="geometry" />
        </mxCell>
        <mxCell id="yiQyodVWs_H40nuC7oee-12" value="입고 관리" style="rounded=0;whiteSpace=wrap;html=1;fontSize=33;" parent="1" vertex="1">
          <mxGeometry x="-310" y="385" width="240" height="90" as="geometry" />
        </mxCell>
        <mxCell id="yiQyodVWs_H40nuC7oee-13" value="생산계획관리" style="rounded=0;whiteSpace=wrap;html=1;fontSize=33;" parent="1" vertex="1">
          <mxGeometry x="1090" y="-10" width="240" height="90" as="geometry" />
        </mxCell>
        <mxCell id="yiQyodVWs_H40nuC7oee-14" value="재고관리" style="rounded=0;whiteSpace=wrap;html=1;fontSize=33;" parent="1" vertex="1">
          <mxGeometry x="-540" y="-360" width="240" height="90" as="geometry" />
        </mxCell>
        <mxCell id="yiQyodVWs_H40nuC7oee-15" value="프로필&amp;nbsp;" style="rounded=0;whiteSpace=wrap;html=1;fontSize=33;" parent="1" vertex="1">
          <mxGeometry x="920" y="450" width="240" height="90" as="geometry" />
        </mxCell>
        <mxCell id="yiQyodVWs_H40nuC7oee-16" value="&lt;b&gt;모니터링&lt;/b&gt;" style="rounded=0;whiteSpace=wrap;html=1;fontSize=33;" parent="1" vertex="1">
          <mxGeometry x="10" y="-470" width="240" height="90" as="geometry" />
        </mxCell>
        <mxCell id="yiQyodVWs_H40nuC7oee-18" value="생산실적관리" style="rounded=0;whiteSpace=wrap;html=1;fontSize=33;" parent="1" vertex="1">
          <mxGeometry x="1100" y="110" width="240" height="90" as="geometry" />
        </mxCell>
        <mxCell id="yiQyodVWs_H40nuC7oee-19" value="구민 : 메인 , 모니터링&lt;br&gt;민영 : 프로필 , 로그인 , 모니터링&lt;br&gt;은별 : 재고 , 입고&lt;br&gt;의건 : 공정, 예측&lt;br&gt;지훈 : 생산계획, 생산실적&lt;br&gt;" style="shape=document;whiteSpace=wrap;html=1;boundedLbl=1;fontSize=30;" parent="1" vertex="1">
          <mxGeometry x="60" y="620" width="560" height="290" as="geometry" />
        </mxCell>
        <mxCell id="yiQyodVWs_H40nuC7oee-20" value="공정기준" style="rounded=0;whiteSpace=wrap;html=1;fontSize=33;" parent="1" vertex="1">
          <mxGeometry x="714" y="-120" width="240" height="90" as="geometry" />
        </mxCell>
        <mxCell id="X45NroIR3j44VbDOQZDv-3" value="완제품재고" style="rounded=0;whiteSpace=wrap;html=1;fontSize=33;" parent="1" vertex="1">
          <mxGeometry x="-850" y="-210" width="240" height="90" as="geometry" />
        </mxCell>
        <mxCell id="X45NroIR3j44VbDOQZDv-4" value="반제품재고" style="rounded=0;whiteSpace=wrap;html=1;fontSize=33;" parent="1" vertex="1">
          <mxGeometry x="-560" y="-210" width="240" height="90" as="geometry" />
        </mxCell>
        <mxCell id="X45NroIR3j44VbDOQZDv-5" value="&lt;span style=&quot;font-size: 27px;&quot;&gt;거래처등록&lt;/span&gt;" style="rounded=0;whiteSpace=wrap;html=1;" parent="1" vertex="1">
          <mxGeometry x="-590" y="650" width="250" height="100" as="geometry" />
        </mxCell>
        <mxCell id="X45NroIR3j44VbDOQZDv-6" value="&lt;span style=&quot;font-size: 27px;&quot;&gt;품목등록&lt;/span&gt;" style="rounded=0;whiteSpace=wrap;html=1;" parent="1" vertex="1">
          <mxGeometry x="-320" y="535" width="250" height="100" as="geometry" />
        </mxCell>
        <mxCell id="gXj9yCD82HJfGl0xxmQX-1" value="&lt;span style=&quot;font-size: 27px;&quot;&gt;품목별단가조회 및 변경&lt;/span&gt;" style="rounded=0;whiteSpace=wrap;html=1;" vertex="1" parent="1">
          <mxGeometry x="-320" y="660" width="250" height="100" as="geometry" />
        </mxCell>
        <mxCell id="gXj9yCD82HJfGl0xxmQX-4" value="출하조회/입력" style="rounded=0;whiteSpace=wrap;html=1;fontSize=33;" vertex="1" parent="1">
          <mxGeometry x="-850" y="-80" width="240" height="90" as="geometry" />
        </mxCell>
        <mxCell id="gXj9yCD82HJfGl0xxmQX-5" value="&lt;span style=&quot;font-size: 27px;&quot;&gt;구매조회/입력&lt;/span&gt;" style="rounded=0;whiteSpace=wrap;html=1;" vertex="1" parent="1">
          <mxGeometry x="-590" y="535" width="250" height="100" as="geometry" />
        </mxCell>
        <mxCell id="gXj9yCD82HJfGl0xxmQX-7" value="출하지시서 조회/입력" style="rounded=0;whiteSpace=wrap;html=1;fontSize=33;" vertex="1" parent="1">
          <mxGeometry x="-850" y="50" width="240" height="90" as="geometry" />
        </mxCell>
        <mxCell id="gXj9yCD82HJfGl0xxmQX-9" value="반제품입고등록/조회" style="rounded=0;whiteSpace=wrap;html=1;fontSize=33;" vertex="1" parent="1">
          <mxGeometry x="-560" y="-80" width="240" height="90" as="geometry" />
        </mxCell>
        <mxCell id="gXj9yCD82HJfGl0xxmQX-10" value="&lt;font style=&quot;font-size: 25px;&quot;&gt;관리자&lt;/font&gt;" style="ellipse;whiteSpace=wrap;html=1;" vertex="1" parent="1">
          <mxGeometry x="145" y="-25" width="120" height="80" as="geometry" />
        </mxCell>
        <mxCell id="gXj9yCD82HJfGl0xxmQX-11" value="&lt;span style=&quot;font-size: 25px;&quot;&gt;일반&lt;/span&gt;" style="ellipse;whiteSpace=wrap;html=1;" vertex="1" parent="1">
          <mxGeometry x="510" y="295" width="120" height="80" as="geometry" />
        </mxCell>
        <mxCell id="gXj9yCD82HJfGl0xxmQX-23" value="" style="endArrow=classic;startArrow=classic;html=1;rounded=0;exitX=0.5;exitY=0;exitDx=0;exitDy=0;" edge="1" parent="1" source="yiQyodVWs_H40nuC7oee-10" target="gXj9yCD82HJfGl0xxmQX-10">
          <mxGeometry width="50" height="50" relative="1" as="geometry">
            <mxPoint x="80" y="40" as="sourcePoint" />
            <mxPoint x="130" y="-10" as="targetPoint" />
          </mxGeometry>
        </mxCell>
        <mxCell id="gXj9yCD82HJfGl0xxmQX-24" value="" style="endArrow=classic;startArrow=classic;html=1;rounded=0;exitX=1;exitY=0.5;exitDx=0;exitDy=0;" edge="1" parent="1" source="yiQyodVWs_H40nuC7oee-10" target="gXj9yCD82HJfGl0xxmQX-11">
          <mxGeometry width="50" height="50" relative="1" as="geometry">
            <mxPoint x="80" y="40" as="sourcePoint" />
            <mxPoint x="130" y="-10" as="targetPoint" />
          </mxGeometry>
        </mxCell>
        <mxCell id="gXj9yCD82HJfGl0xxmQX-26" value="" style="endArrow=classic;html=1;rounded=0;" edge="1" parent="1" source="yiQyodVWs_H40nuC7oee-10" target="yiQyodVWs_H40nuC7oee-12">
          <mxGeometry width="50" height="50" relative="1" as="geometry">
            <mxPoint x="150" y="500" as="sourcePoint" />
            <mxPoint x="-320" y="310" as="targetPoint" />
          </mxGeometry>
        </mxCell>
        <mxCell id="gXj9yCD82HJfGl0xxmQX-27" value="" style="endArrow=classic;html=1;rounded=0;exitX=0;exitY=0;exitDx=0;exitDy=0;entryX=1;entryY=0.5;entryDx=0;entryDy=0;" edge="1" parent="1" source="yiQyodVWs_H40nuC7oee-10" target="yiQyodVWs_H40nuC7oee-14">
          <mxGeometry width="50" height="50" relative="1" as="geometry">
            <mxPoint x="118" y="249.86" as="sourcePoint" />
            <mxPoint x="-70" y="294.86" as="targetPoint" />
          </mxGeometry>
        </mxCell>
      </root>
    </mxGraphModel>
  </diagram>
</mxfile>
